<svg width="82" height="21" viewBox="0 0 82 21" fill="none" xmlns="http://www.w3.org/2000/svg">
<path fill-rule="evenodd" clip-rule="evenodd" d="M9.71863 19.8845C14.9016 19.8845 19.1033 15.6829 19.1033 10.4999C19.1033 5.31688 14.9016 1.11523 9.71863 1.11523C4.53563 1.11523 0.333984 5.31688 0.333984 10.4999C0.333984 15.6829 4.53563 19.8845 9.71863 19.8845ZM9.71866 15.1921C12.3102 15.1921 14.411 13.0913 14.411 10.4998C14.411 7.90828 12.3102 5.80746 9.71866 5.80746C7.12716 5.80746 5.02634 7.90828 5.02634 10.4998C5.02634 13.0913 7.12716 15.1921 9.71866 15.1921Z" fill="url(#paint0_angular_470_38509)"/>
<path d="M25.4826 11.4063V9.60765H28.2334C28.5934 9.60765 28.9197 9.53743 29.2122 9.397C29.5048 9.25656 29.7354 9.05671 29.9042 8.79745C30.0729 8.52738 30.1573 8.2033 30.1573 7.82521C30.1573 7.45792 30.0729 7.13925 29.9042 6.86918C29.7354 6.59911 29.5048 6.39386 29.2122 6.25343C28.9197 6.113 28.5934 6.04278 28.2334 6.04278H25.4826V4.24414H28.4697C29.2235 4.24414 29.8985 4.38998 30.4948 4.68165C31.1024 4.97332 31.5806 5.38922 31.9293 5.92935C32.2781 6.45868 32.4525 7.09063 32.4525 7.82521C32.4525 8.55979 32.2781 9.19715 31.9293 9.73728C31.5806 10.2666 31.1024 10.6771 30.4948 10.9688C29.8985 11.2604 29.2235 11.4063 28.4697 11.4063H25.4826ZM23.7949 15.6355V4.24414H26.0901V15.6355H23.7949Z" fill="#FBFBFB"/>
<path d="M35.6379 15.7976C34.8954 15.7976 34.2259 15.6193 33.6296 15.2628C33.0333 14.9063 32.5664 14.4202 32.2289 13.8045C31.8914 13.1887 31.7226 12.4974 31.7226 11.7304C31.7226 10.9526 31.8914 10.2558 32.2289 9.64006C32.5664 9.0243 33.0333 8.53819 33.6296 8.1817C34.2259 7.82521 34.8954 7.64697 35.6379 7.64697C36.223 7.64697 36.7461 7.7604 37.2074 7.98725C37.6687 8.21411 38.0344 8.53278 38.3044 8.94328C38.5856 9.34298 38.7375 9.79669 38.76 10.3044V13.1239C38.7375 13.6424 38.5856 14.1015 38.3044 14.5012C38.0344 14.9009 37.6687 15.2196 37.2074 15.4573C36.7461 15.6841 36.223 15.7976 35.6379 15.7976ZM36.0429 13.8369C36.6617 13.8369 37.1624 13.6424 37.5449 13.2535C37.9275 12.8538 38.1187 12.3407 38.1187 11.7142C38.1187 11.3037 38.0287 10.9418 37.8487 10.6285C37.68 10.3044 37.4381 10.056 37.123 9.88311C36.8193 9.69947 36.4592 9.60765 36.0429 9.60765C35.6379 9.60765 35.2779 9.69947 34.9629 9.88311C34.6591 10.056 34.4172 10.3044 34.2372 10.6285C34.0684 10.9418 33.984 11.3037 33.984 11.7142C33.984 12.1355 34.0684 12.5082 34.2372 12.8322C34.4172 13.1455 34.6591 13.394 34.9629 13.5776C35.2779 13.7505 35.6379 13.8369 36.0429 13.8369ZM38.0006 15.6355V13.529L38.355 11.6169L38.0006 9.73728V7.80901H40.1945V15.6355H38.0006Z" fill="#FBFBFB"/>
<path d="M46.2851 15.6355V11.147C46.2851 10.6825 46.1332 10.3044 45.8294 10.0127C45.5256 9.72108 45.1318 9.57524 44.648 9.57524C44.333 9.57524 44.0517 9.64006 43.8042 9.76969C43.5567 9.89932 43.3598 10.083 43.2136 10.3206C43.0785 10.5583 43.011 10.8337 43.011 11.147L42.1503 10.7257C42.1503 10.11 42.2854 9.57524 42.5554 9.12153C42.8366 8.65701 43.2192 8.29513 43.703 8.03586C44.198 7.7766 44.7549 7.64697 45.3737 7.64697C45.97 7.64697 46.5044 7.7928 46.977 8.08448C47.4495 8.36534 47.8208 8.73804 48.0908 9.20255C48.3608 9.65626 48.4959 10.1478 48.4959 10.6771V15.6355H46.2851ZM40.8002 15.6355V7.80901H43.011V15.6355H40.8002Z" fill="#FBFBFB"/>
<path d="M52.3356 19.1032C51.4693 19.1032 50.7042 18.9519 50.0404 18.6495C49.3766 18.3578 48.8478 17.9419 48.4541 17.4017L49.8548 16.0568C50.1698 16.4133 50.5186 16.6834 50.9011 16.867C51.2949 17.0615 51.7675 17.1587 52.3188 17.1587C53.0051 17.1587 53.5451 16.9912 53.9389 16.6564C54.3439 16.3215 54.5464 15.857 54.5464 15.2628V13.3021L54.9177 11.5845L54.5633 9.86691V7.80901H56.7572V15.2304C56.7572 16.0082 56.566 16.6834 56.1834 17.2559C55.8122 17.8393 55.2946 18.293 54.6308 18.617C53.967 18.9411 53.2019 19.1032 52.3356 19.1032ZM52.2344 15.4249C51.5031 15.4249 50.8449 15.2574 50.2598 14.9225C49.6748 14.5769 49.2135 14.1069 48.876 13.5128C48.5497 12.9187 48.3866 12.2543 48.3866 11.5197C48.3866 10.7851 48.5497 10.1262 48.876 9.54283C49.2135 8.95949 49.6748 8.50038 50.2598 8.1655C50.8449 7.81981 51.5031 7.64697 52.2344 7.64697C52.8419 7.64697 53.3763 7.7604 53.8376 7.98725C54.3102 8.21411 54.6814 8.52738 54.9515 8.92708C55.2215 9.31598 55.3677 9.77509 55.3902 10.3044V12.7674C55.3677 13.2859 55.2159 13.7505 54.9346 14.161C54.6646 14.5607 54.2933 14.8739 53.8207 15.1008C53.3595 15.3168 52.8307 15.4249 52.2344 15.4249ZM52.6732 13.4966C53.0782 13.4966 53.427 13.4156 53.7195 13.2535C54.0233 13.0807 54.2595 12.8484 54.4283 12.5568C54.5971 12.2543 54.6814 11.914 54.6814 11.5359C54.6814 11.147 54.5971 10.8067 54.4283 10.5151C54.2595 10.2234 54.0233 9.99654 53.7195 9.8345C53.427 9.66166 53.0782 9.57524 52.6732 9.57524C52.2681 9.57524 51.9137 9.66166 51.6099 9.8345C51.3062 9.99654 51.0699 10.2288 50.9011 10.5313C50.7324 10.8229 50.648 11.1578 50.648 11.5359C50.648 11.9032 50.7324 12.2381 50.9011 12.5406C51.0699 12.8322 51.3062 13.0645 51.6099 13.2373C51.9137 13.4102 52.2681 13.4966 52.6732 13.4966Z" fill="#FBFBFB"/>
<path d="M60.7586 15.7976C60.0161 15.7976 59.3467 15.6193 58.7504 15.2628C58.1541 14.9063 57.6871 14.4202 57.3496 13.8045C57.0121 13.1887 56.8433 12.4974 56.8433 11.7304C56.8433 10.9526 57.0121 10.2558 57.3496 9.64006C57.6871 9.0243 58.1541 8.53819 58.7504 8.1817C59.3467 7.82521 60.0161 7.64697 60.7586 7.64697C61.3437 7.64697 61.8669 7.7604 62.3281 7.98725C62.7894 8.21411 63.1551 8.53278 63.4251 8.94328C63.7064 9.34298 63.8583 9.79669 63.8808 10.3044V13.1239C63.8583 13.6424 63.7064 14.1015 63.4251 14.5012C63.1551 14.9009 62.7894 15.2196 62.3281 15.4573C61.8669 15.6841 61.3437 15.7976 60.7586 15.7976ZM61.1637 13.8369C61.7825 13.8369 62.2831 13.6424 62.6657 13.2535C63.0482 12.8538 63.2395 12.3407 63.2395 11.7142C63.2395 11.3037 63.1495 10.9418 62.9695 10.6285C62.8007 10.3044 62.5588 10.056 62.2438 9.88311C61.94 9.69947 61.58 9.60765 61.1637 9.60765C60.7586 9.60765 60.3986 9.69947 60.0836 9.88311C59.7798 10.056 59.5379 10.3044 59.3579 10.6285C59.1891 10.9418 59.1048 11.3037 59.1048 11.7142C59.1048 12.1355 59.1891 12.5082 59.3579 12.8322C59.5379 13.1455 59.7798 13.394 60.0836 13.5776C60.3986 13.7505 60.7586 13.8369 61.1637 13.8369ZM63.1213 15.6355V13.529L63.4757 11.6169L63.1213 9.73728V7.80901H65.3153V15.6355H63.1213Z" fill="#FBFBFB"/>
<path d="M69.8194 15.7976C68.9643 15.7976 68.2049 15.6247 67.5411 15.279C66.8773 14.9225 66.3485 14.4364 65.9547 13.8207C65.5722 13.2049 65.3809 12.5028 65.3809 11.7142C65.3809 10.9364 65.5666 10.245 65.9378 9.64006C66.3204 9.0243 66.8379 8.53819 67.4905 8.1817C68.143 7.81441 68.8687 7.63077 69.6675 7.63077C70.4551 7.63077 71.147 7.80361 71.7433 8.14929C72.3509 8.48417 72.8234 8.94869 73.1609 9.54283C73.5097 10.1262 73.6841 10.7905 73.6841 11.5359C73.6841 11.6764 73.6729 11.8222 73.6503 11.9734C73.6391 12.1139 73.611 12.2759 73.566 12.4595L66.7142 12.4757V10.8878L72.5365 10.8716L71.6421 11.5359C71.6196 11.0714 71.5295 10.6825 71.372 10.3692C71.2258 10.056 71.0064 9.8183 70.7139 9.65626C70.4326 9.48342 70.0838 9.397 69.6675 9.397C69.2287 9.397 68.8462 9.49422 68.5199 9.68867C68.1937 9.87231 67.9405 10.137 67.7605 10.4827C67.5917 10.8175 67.5073 11.2172 67.5073 11.6818C67.5073 12.1571 67.5974 12.573 67.7774 12.9295C67.9686 13.2751 68.2387 13.5452 68.5874 13.7397C68.9362 13.9233 69.3413 14.0151 69.8025 14.0151C70.2188 14.0151 70.5957 13.9503 70.9333 13.8207C71.2708 13.6802 71.5633 13.475 71.8108 13.2049L73.1103 14.4526C72.7165 14.8955 72.2327 15.2304 71.6589 15.4573C71.0964 15.6841 70.4832 15.7976 69.8194 15.7976Z" fill="#FBFBFB"/>
<path d="M77.1103 15.7976C76.3677 15.7976 75.6983 15.6193 75.102 15.2628C74.5057 14.9063 74.0388 14.4202 73.7012 13.8045C73.3637 13.1887 73.195 12.4974 73.195 11.7304C73.195 10.9526 73.3637 10.2558 73.7012 9.64006C74.0388 9.0243 74.5057 8.53819 75.102 8.1817C75.6983 7.82521 76.3677 7.64697 77.1103 7.64697C77.6953 7.64697 78.2185 7.7604 78.6798 7.98725C79.1411 8.21411 79.5067 8.53278 79.7767 8.94328C80.058 9.34298 80.2099 9.79669 80.2324 10.3044V13.1239C80.2099 13.6424 80.058 14.1015 79.7767 14.5012C79.5067 14.9009 79.1411 15.2196 78.6798 15.4573C78.2185 15.6841 77.6953 15.7976 77.1103 15.7976ZM77.5153 13.8369C78.1341 13.8369 78.6348 13.6424 79.0173 13.2535C79.3998 12.8538 79.5911 12.3407 79.5911 11.7142C79.5911 11.3037 79.5011 10.9418 79.3211 10.6285C79.1523 10.3044 78.9104 10.056 78.5954 9.88311C78.2916 9.69947 77.9316 9.60765 77.5153 9.60765C77.1103 9.60765 76.7502 9.69947 76.4352 9.88311C76.1314 10.056 75.8895 10.3044 75.7095 10.6285C75.5408 10.9418 75.4564 11.3037 75.4564 11.7142C75.4564 12.1355 75.5408 12.5082 75.7095 12.8322C75.8895 13.1455 76.1314 13.394 76.4352 13.5776C76.7502 13.7505 77.1103 13.8369 77.5153 13.8369ZM79.473 15.6355V13.529L79.8274 11.6169L79.473 9.73728V7.80901H81.6669V15.6355H79.473Z" fill="#FBFBFB"/>
<defs>
<radialGradient id="paint0_angular_470_38509" cx="0" cy="0" r="1" gradientUnits="userSpaceOnUse" gradientTransform="translate(9.71863 10.4999) rotate(90) scale(9.38464)">
<stop/>
<stop offset="0.265625" stop-color="#B9B9B9"/>
<stop offset="0.484375" stop-color="#1D1D1D"/>
<stop offset="0.671875" stop-color="#AFAFAF"/>
<stop offset="0.8125" stop-color="#B9B9B9"/>
<stop offset="1"/>
</radialGradient>
</defs>
</svg>
