<svg width="10" height="13" viewBox="0 0 10 13" fill="none" xmlns="http://www.w3.org/2000/svg">
<path fill-rule="evenodd" clip-rule="evenodd" d="M1.59091 4.52857H5.40909C5.7254 4.52857 5.98182 4.78761 5.98182 5.10714V10.8929C5.98182 11.2124 5.7254 11.4714 5.40909 11.4714H1.59091C1.2746 11.4714 1.01818 11.2124 1.01818 10.8929V5.10714C1.01818 4.78761 1.2746 4.52857 1.59091 4.52857ZM5.40909 3.5C6.28773 3.5 7 4.21954 7 5.10714V10.8929C7 11.7805 6.28773 12.5 5.40909 12.5H1.59091C0.712275 12.5 0 11.7805 0 10.8929V5.10714C0 4.21954 0.712275 3.5 1.59091 3.5H5.40909Z" fill="#94A3B8"/>
<path fill-rule="evenodd" clip-rule="evenodd" d="M8.40909 1.52857H4.59091C4.2746 1.52857 4.01818 1.78761 4.01818 2.10714V3.71429H3V2.10714C3 1.21954 3.71227 0.5 4.59091 0.5H8.40909C9.28773 0.5 10 1.21954 10 2.10714V7.89286C10 8.78046 9.28773 9.5 8.40909 9.5H6.81818V8.47143H8.40909C8.7254 8.47143 8.98182 8.21239 8.98182 7.89286V2.10714C8.98182 1.78761 8.7254 1.52857 8.40909 1.52857Z" fill="#94A3B8"/>
</svg>
