<svg width="28" height="29" viewBox="0 0 28 29" fill="none" xmlns="http://www.w3.org/2000/svg">
<path fill-rule="evenodd" clip-rule="evenodd" d="M11.8814 24.8368C12.2614 25.6222 13.068 26.1668 13.9999 26.1668V24.1252C13.8292 24.1252 13.6893 23.9858 13.6893 23.8146C13.6893 23.251 13.2321 22.7937 12.6685 22.7937H4.68411C4.62735 22.7937 4.57429 22.7787 4.52865 22.7521L6.7366 20.5441C6.92906 20.3517 7.03496 20.092 7.03496 19.8217V17.9819C7.0362 17.9643 7.03777 17.9395 7.0378 17.9118C7.05198 14.7716 7.42 12.472 8.17717 10.8494C8.92554 9.24571 10.0574 8.29448 11.6504 7.84278C12.1324 7.70596 12.4473 7.23496 12.3838 6.73492L12.3835 6.73262L12.3698 6.63186C12.359 6.5532 12.3565 6.53491 12.3565 6.51295C12.3588 5.61116 13.0957 4.87516 13.9999 4.87516V2.8335C12.0988 2.8335 10.529 4.28272 10.3377 6.13575C8.03834 7.0373 6.71248 8.81097 5.96064 10.8959C5.19402 13.0218 5.01618 15.4897 4.99909 17.7372C4.9962 17.7666 4.99471 17.7958 4.99471 17.8273V19.4004L2.63161 21.7635C2.44136 21.9537 2.33325 22.2131 2.33325 22.4845C2.33325 23.782 3.38808 24.8368 4.68552 24.8368H11.8814ZM16.1184 24.8368C15.7385 25.6222 14.9318 26.1668 13.9999 26.1668V24.1252C14.1706 24.1252 14.3105 23.9858 14.3105 23.8146C14.3105 23.251 14.7678 22.7937 15.3314 22.7937H23.3157C23.3725 22.7937 23.4255 22.7787 23.4712 22.7521L21.2632 20.5441C21.0708 20.3517 20.9649 20.092 20.9649 19.8217V17.9819C20.9636 17.9643 20.9621 17.9395 20.962 17.9118C20.9479 14.7716 20.5798 12.472 19.8227 10.8494C19.0743 9.24571 17.9424 8.29448 16.3494 7.84278C15.8675 7.70596 15.5525 7.23496 15.6161 6.73492L15.6164 6.73262L15.6301 6.63186C15.6409 6.5532 15.6434 6.53491 15.6434 6.51295C15.641 5.61116 14.9042 4.87516 13.9999 4.87516V2.8335C15.901 2.8335 17.4709 4.28272 17.6621 6.13575C19.9615 7.0373 21.2874 8.81097 22.0392 10.8959C22.8058 13.0218 22.9837 15.4897 23.0007 17.7372C23.0036 17.7666 23.0051 17.7958 23.0051 17.8273V19.4004L25.3682 21.7635C25.5585 21.9537 25.6666 22.2131 25.6666 22.4845C25.6666 23.782 24.6118 24.8368 23.3143 24.8368H16.1184Z" fill="#282828"/>
</svg>
