<svg width="18" height="15" viewBox="0 0 18 15" fill="none" xmlns="http://www.w3.org/2000/svg">
<path d="M12.2581 13.7119V12.2679C12.2583 11.8885 12.1837 11.5128 12.0386 11.1622C11.8935 10.8117 11.6808 10.4931 11.4127 10.2248C11.1445 9.95641 10.8261 9.74349 10.4756 9.59819C10.1252 9.45288 9.74951 9.37802 9.37012 9.37789H3.59213C3.21265 9.37789 2.8369 9.45265 2.48632 9.5979C2.13575 9.74315 1.81722 9.95604 1.54894 10.2244C1.28066 10.4928 1.06788 10.8114 0.92275 11.162C0.777623 11.5126 0.702994 11.8884 0.703125 12.2679V13.7119M16.5961 13.7129V12.2689C16.5958 11.6289 16.3829 11.007 15.9909 10.5011C15.5988 9.99524 15.0498 9.6339 14.4301 9.47389M11.5311 0.806891C12.1524 0.966155 12.703 1.32761 13.0961 1.83428C13.4893 2.34096 13.7027 2.96406 13.7027 3.60539C13.7027 4.24672 13.4893 4.86982 13.0961 5.3765C12.703 5.88318 12.1524 6.24463 11.5311 6.40389M6.48312 6.49089C7.24934 6.49089 7.98416 6.18651 8.52596 5.64472C9.06775 5.10293 9.37212 4.3681 9.37212 3.60189C9.37212 2.83568 9.06775 2.10085 8.52596 1.55906C7.98416 1.01727 7.24934 0.712891 6.48312 0.712891C5.71691 0.712891 4.98209 1.01727 4.44029 1.55906C3.8985 2.10085 3.59413 2.83568 3.59413 3.60189C3.59413 4.3681 3.8985 5.10293 4.44029 5.64472C4.98209 6.18651 5.71691 6.49089 6.48312 6.49089Z" stroke="#A7F3D0" stroke-linecap="round"/>
</svg>
