<svg width="96" height="96" viewBox="0 0 96 96" fill="none" xmlns="http://www.w3.org/2000/svg">
<path d="M17.8805 82.0144H78.1205C84.2805 82.0144 88.1205 75.3344 85.0405 70.0144L54.9205 17.9744C51.8405 12.6544 44.1605 12.6544 41.0805 17.9744L10.9605 70.0144C7.88049 75.3344 11.7205 82.0144 17.8805 82.0144ZM48.0005 56.681C45.8005 56.681 44.0005 54.881 44.0005 52.681V42.0144C44.0005 39.8144 45.8005 38.0144 48.0005 38.0144C50.2005 38.0144 52.0005 39.8144 52.0005 42.0144V52.681C52.0005 54.881 50.2005 56.681 48.0005 56.681ZM52.0005 66.0144C52.0005 68.2235 50.2096 70.0144 48.0005 70.0144C45.7913 70.0144 44.0005 68.2235 44.0005 66.0144C44.0005 63.8052 45.7913 62.0144 48.0005 62.0144C50.2096 62.0144 52.0005 63.8052 52.0005 66.0144Z" fill="#FFB802"/>
</svg>
